<?xml version="1.0" encoding="utf-8"?>
<!-- Generator: Adobe Illustrator 16.0.0, SVG Export Plug-In . SVG Version: 6.00 Build 0)  -->
<!DOCTYPE svg PUBLIC "-//W3C//DTD SVG 1.1//EN" "http://www.w3.org/Graphics/SVG/1.1/DTD/svg11.dtd">
<svg version="1.1" id="Layer_1" xmlns="http://www.w3.org/2000/svg" xmlns:xlink="http://www.w3.org/1999/xlink" x="0px" y="0px"
	 width="228.598px" height="57.378px" viewBox="78.707 0 228.598 57.378" enable-background="new 78.707 0 228.598 57.378"
	 xml:space="preserve">
<g>
	<path fill="#10029A" d="M102.445,29.934c-0.905,1.491-2.238,2.683-4,3.571s-3.897,1.332-6.405,1.332
		c-3.777,0-6.889-0.92-9.333-2.762c-2.444-1.841-3.777-4.412-4-7.714h8.667c0.126,1.27,0.579,2.27,1.357,3
		c0.776,0.73,1.769,1.095,2.976,1.095c1.047,0,1.873-0.285,2.477-0.856c0.603-0.572,0.904-1.334,0.904-2.286
		c0-0.857-0.277-1.571-0.833-2.143c-0.556-0.571-1.246-1.04-2.07-1.405c-0.826-0.364-1.97-0.801-3.43-1.31
		c-2.127-0.729-3.864-1.436-5.214-2.119c-1.35-0.683-2.508-1.698-3.477-3.048c-0.969-1.349-1.452-3.103-1.452-5.262
		c0-2,0.507-3.73,1.524-5.19c1.016-1.46,2.42-2.579,4.214-3.357c1.793-0.777,3.849-1.167,6.167-1.167
		c3.746,0,6.722,0.889,8.929,2.667c2.206,1.778,3.452,4.223,3.738,7.333h-8.811c-0.159-1.111-0.563-1.992-1.214-2.643
		c-0.651-0.65-1.532-0.976-2.643-0.976c-0.953,0-1.724,0.254-2.311,0.762c-0.588,0.508-0.881,1.255-0.881,2.238
		c0,0.794,0.262,1.469,0.786,2.024c0.524,0.556,1.182,1.008,1.976,1.357c0.793,0.35,1.937,0.794,3.43,1.333
		c2.157,0.73,3.92,1.452,5.286,2.167c1.364,0.714,2.539,1.754,3.523,3.119c0.983,1.365,1.477,3.143,1.477,5.333
		C103.802,26.807,103.35,28.441,102.445,29.934z"/>
	<path fill="#10029A" d="M125.611,34.505l-7.286-12.714h-1.857v12.714h-8.143V0.838h13.905c2.667,0,4.92,0.46,6.762,1.381
		c1.841,0.921,3.222,2.183,4.143,3.786c0.921,1.604,1.382,3.437,1.382,5.5c0,2.445-0.676,4.524-2.024,6.238
		c-1.35,1.714-3.31,2.889-5.881,3.523l8,13.237h-9V34.505z M116.468,16.219h5.049c1.618,0,2.81-0.357,3.57-1.071
		c0.763-0.714,1.144-1.77,1.144-3.167c0-1.333-0.39-2.381-1.167-3.143c-0.778-0.762-1.961-1.143-3.548-1.143h-5.049L116.468,16.219
		L116.468,16.219z"/>
	<path fill="#10029A" d="M146.753,7.314v7.047h11.381v6.143h-11.381v7.477h12.811v6.522H138.61V0.838h20.952v6.476H146.753z"/>
	<path fill="#10029A" d="M172.324,7.314v7.047h11.381v6.143h-11.381v7.477h12.81v6.522h-20.951V0.838h20.951v6.476H172.324z"/>
	<path fill="#10029A" d="M205.562,0.838l8.237,25.333l8.238-25.333h8.714l-11.714,33.667h-10.522L196.847,0.838H205.562z"/>
	<path fill="#10029A" d="M254.751,28.362h-12.619l-2.096,6.144h-8.571l12.333-33.429h9.382l12.333,33.429h-8.667L254.751,28.362z
		 M252.656,22.172l-4.19-12.381l-4.237,12.381H252.656z"/>
	<path fill="#10029A" d="M285.942,34.505l-7.286-12.714h-1.857v12.714h-8.143V0.838h13.905c2.667,0,4.92,0.46,6.762,1.381
		c1.841,0.921,3.222,2.183,4.143,3.786c0.92,1.604,1.382,3.437,1.382,5.5c0,2.445-0.676,4.524-2.024,6.238
		c-1.35,1.714-3.31,2.889-5.881,3.523l8,13.237h-9V34.505z M276.799,16.219h5.049c1.618,0,2.81-0.357,3.57-1.071
		c0.763-0.714,1.144-1.77,1.144-3.167c0-1.333-0.39-2.381-1.167-3.143c-0.778-0.762-1.961-1.143-3.548-1.143h-5.049L276.799,16.219
		L276.799,16.219z"/>
	<path fill="#10029A" d="M307.083,0.838v33.667h-8.143V0.838H307.083z"/>
</g>
<rect x="82.969" y="39.33" fill="#3FDBF0" width="224.336" height="17.619"/>
<g>
	<path fill="#FFFFFF" d="M104.302,43.757v2.039h-2.88v8.565h-2.58v-8.565h-2.85v-2.039H104.302z"/>
	<path fill="#FFFFFF" d="M133.327,54.362l-2.295-4.005h-0.585v4.005h-2.565V43.757h4.381c0.84,0,1.55,0.146,2.13,0.436
		s1.015,0.688,1.305,1.191c0.29,0.506,0.435,1.084,0.435,1.732c0,0.771-0.212,1.426-0.637,1.965c-0.425,0.541-1.042,0.91-1.853,1.11
		l2.52,4.17H133.327z M130.447,48.603h1.59c0.51,0,0.885-0.111,1.125-0.338c0.24-0.225,0.36-0.559,0.36-0.997
		c0-0.42-0.123-0.75-0.367-0.99c-0.246-0.239-0.618-0.36-1.118-0.36h-1.59V48.603z"/>
	<path fill="#FFFFFF" d="M166.492,52.428h-3.975l-0.66,1.935h-2.7l3.885-10.529h2.955l3.885,10.529h-2.729L166.492,52.428z
		 M165.832,50.478l-1.319-3.9l-1.336,3.9H165.832z"/>
	<path fill="#FFFFFF" d="M195.352,43.757l2.595,7.979l2.595-7.979h2.745l-3.689,10.604h-3.315l-3.675-10.604H195.352z"/>
	<path fill="#FFFFFF" d="M229.341,45.796v2.222h3.585v1.935h-3.585v2.355h4.035v2.055h-6.6V43.757h6.6v2.039H229.341z"/>
	<path fill="#FFFFFF" d="M259.896,52.397h3.42v1.965h-5.985V43.757h2.565V52.397L259.896,52.397z"/>
	<path fill="#FFFFFF" d="M294.194,52.921c-0.285,0.472-0.705,0.847-1.26,1.125c-0.556,0.281-1.229,0.422-2.019,0.422
		c-1.189,0-2.17-0.29-2.939-0.87c-0.771-0.58-1.19-1.392-1.261-2.431h2.73c0.04,0.399,0.182,0.715,0.427,0.944
		s0.559,0.345,0.938,0.345c0.33,0,0.59-0.09,0.779-0.27c0.19-0.182,0.285-0.42,0.285-0.721c0-0.271-0.087-0.494-0.262-0.676
		c-0.175-0.18-0.393-0.326-0.652-0.441c-0.26-0.114-0.621-0.252-1.08-0.412c-0.67-0.23-1.218-0.452-1.643-0.668
		c-0.425-0.215-0.79-0.534-1.095-0.96c-0.306-0.425-0.458-0.978-0.458-1.657c0-0.63,0.16-1.175,0.479-1.635
		c0.32-0.46,0.764-0.813,1.328-1.059c0.565-0.244,1.212-0.367,1.942-0.367c1.18,0,2.118,0.279,2.813,0.841
		c0.695,0.56,1.088,1.33,1.178,2.31h-2.774c-0.05-0.35-0.178-0.627-0.383-0.832s-0.482-0.308-0.833-0.308
		c-0.301,0-0.542,0.08-0.729,0.239c-0.185,0.16-0.276,0.396-0.276,0.705c0,0.25,0.083,0.463,0.247,0.638
		c0.165,0.176,0.373,0.317,0.623,0.428c0.25,0.111,0.61,0.25,1.08,0.421c0.681,0.229,1.235,0.457,1.665,0.682
		c0.431,0.226,0.8,0.554,1.11,0.982c0.31,0.43,0.465,0.99,0.465,1.68C294.621,51.938,294.479,52.453,294.194,52.921z"/>
</g>
</svg>
